# xmcd CD database file
#
# Track frame offsets:
#	150
#	10367
#	24339
#	42655
#	51561
#	69485
#	88630
#	102753
#	115323
#	129452
#	144128
#	159525
#	173715
#
# Disc length: 2573 seconds
#
# Revision: 0
# Processed by: cddbd v1.5.2PL0 Copyright (c) Steve Scherf et al.
# Submitted via: CDex 1.51
#
DISCID=ab0a0b0d
DTITLE=Bena and Ptaszek - Music Of The Mississippi River
DYEAR=2011
DGENRE=Blues
TTITLE0=On A Monday
TTITLE1=The House Of The Rising Sun
TTITLE2=I Got A Woman
TTITLE3=Railroad Bill
TTITLE4=Picking My Tomatoes
TTITLE5=See That My Grave Is Kept Clean
TTITLE6=Creolle Belle
TTITLE7=Goodnight, Irene
TTITLE8=Take This Hammer
TTITLE9=Key To The Highway
TTITLE10=My Babe
TTITLE11=Bring Me Little Water, Silvie
TTITLE12=John Henry
EXTD=YEAR: 2011
EXTT0=
EXTT1=
EXTT2=
EXTT3=
EXTT4=
EXTT5=
EXTT6=
EXTT7=
EXTT8=
EXTT9=
EXTT10=
EXTT11=
EXTT12=
PLAYORDER=
